G04 EAGLE Gerber RS-274X export*
G75*
%MOMM*%
%FSLAX34Y34*%
%LPD*%
%INBottom Copper*%
%IPPOS*%
%AMOC8*
5,1,8,0,0,1.08239X$1,22.5*%
G01*
%ADD10P,1.539592X8X112.500000*%
%ADD11C,1.676400*%
%ADD12C,1.320800*%
%ADD13C,1.879600*%
%ADD14C,1.790700*%
%ADD15C,0.152400*%
%ADD16C,0.756400*%


D10*
X520700Y190500D03*
X520700Y266700D03*
D11*
X241300Y292100D03*
X241300Y190500D03*
X190500Y292100D03*
X190500Y190500D03*
D12*
X215900Y336296D02*
X215900Y349504D01*
X241300Y349504D02*
X241300Y336296D01*
X368300Y336296D02*
X368300Y349504D01*
X393700Y349504D02*
X393700Y336296D01*
X266700Y336296D02*
X266700Y349504D01*
X292100Y349504D02*
X292100Y336296D01*
X342900Y336296D02*
X342900Y349504D01*
X317500Y349504D02*
X317500Y336296D01*
X393700Y412496D02*
X393700Y425704D01*
X368300Y425704D02*
X368300Y412496D01*
X342900Y412496D02*
X342900Y425704D01*
X317500Y425704D02*
X317500Y412496D01*
X292100Y412496D02*
X292100Y425704D01*
X266700Y425704D02*
X266700Y412496D01*
X241300Y412496D02*
X241300Y425704D01*
X215900Y425704D02*
X215900Y412496D01*
D13*
X368300Y38100D03*
X393700Y38100D03*
X419100Y38100D03*
X444500Y38100D03*
D14*
X203600Y41847D02*
X203600Y59754D01*
X253600Y59754D02*
X253600Y41847D01*
X537147Y356000D02*
X555054Y356000D01*
X555054Y406000D02*
X537147Y406000D01*
X85154Y406000D02*
X67247Y406000D01*
X67247Y356000D02*
X85154Y356000D01*
D15*
X158750Y292100D02*
X95250Y228600D01*
X158750Y292100D02*
X190500Y292100D01*
D16*
X95250Y228600D03*
D15*
X215900Y292100D02*
X215900Y342900D01*
X215900Y292100D02*
X241300Y292100D01*
X374650Y400050D02*
X393700Y419100D01*
X355600Y400050D02*
X234950Y400050D01*
X355600Y400050D02*
X374650Y400050D01*
X234950Y400050D02*
X215900Y419100D01*
X355600Y400050D02*
X355600Y203200D01*
X203200Y203200D02*
X190500Y190500D01*
X203200Y203200D02*
X355600Y203200D01*
D16*
X355600Y203200D03*
D15*
X209550Y190500D02*
X209550Y50800D01*
X209550Y190500D02*
X241300Y190500D01*
X209550Y50800D02*
X203600Y50800D01*
X393700Y190500D02*
X393700Y342900D01*
X393700Y190500D02*
X520700Y190500D01*
X393700Y190500D02*
X241300Y190500D01*
X266700Y419100D02*
X292100Y444500D01*
X533400Y444500D01*
X571500Y406400D01*
X571500Y361950D01*
X546100Y361950D01*
X546100Y356000D01*
X361950Y438150D02*
X342900Y419100D01*
X361950Y438150D02*
X514350Y438150D01*
X546100Y406400D01*
X546100Y406000D01*
X266700Y342900D02*
X247650Y361950D01*
X76200Y361950D01*
X76200Y356000D01*
X292100Y393700D02*
X342900Y342900D01*
X292100Y393700D02*
X82550Y393700D01*
X76200Y400050D01*
X76200Y406000D01*
X241300Y419100D02*
X273050Y450850D01*
X533400Y450850D01*
X577850Y406400D01*
X577850Y38100D01*
X444500Y38100D01*
X368300Y342900D02*
X387350Y361950D01*
X400050Y361950D01*
X533400Y228600D01*
X533400Y57150D01*
X412750Y57150D01*
X393700Y38100D01*
X311150Y273050D02*
X241300Y342900D01*
X311150Y273050D02*
X311150Y254000D01*
X234950Y254000D01*
X171450Y190500D01*
X171450Y25400D01*
X330200Y25400D02*
X355600Y25400D01*
X330200Y25400D02*
X171450Y25400D01*
X355600Y25400D02*
X368300Y38100D01*
M02*
