G04 EAGLE Gerber RS-274X export*
G75*
%MOMM*%
%FSLAX34Y34*%
%LPD*%
%INSoldermask Bottom*%
%IPPOS*%
%AMOC8*
5,1,8,0,0,1.08239X$1,22.5*%
G01*
%ADD10P,1.759533X8X112.500000*%
%ADD11C,1.879600*%
%ADD12C,1.524000*%
%ADD13C,2.082800*%
%ADD14C,1.993900*%
%ADD15C,0.959600*%


D10*
X520700Y190500D03*
X520700Y266700D03*
D11*
X241300Y292100D03*
X241300Y190500D03*
X190500Y292100D03*
X190500Y190500D03*
D12*
X215900Y336296D02*
X215900Y349504D01*
X241300Y349504D02*
X241300Y336296D01*
X368300Y336296D02*
X368300Y349504D01*
X393700Y349504D02*
X393700Y336296D01*
X266700Y336296D02*
X266700Y349504D01*
X292100Y349504D02*
X292100Y336296D01*
X342900Y336296D02*
X342900Y349504D01*
X317500Y349504D02*
X317500Y336296D01*
X393700Y412496D02*
X393700Y425704D01*
X368300Y425704D02*
X368300Y412496D01*
X342900Y412496D02*
X342900Y425704D01*
X317500Y425704D02*
X317500Y412496D01*
X292100Y412496D02*
X292100Y425704D01*
X266700Y425704D02*
X266700Y412496D01*
X241300Y412496D02*
X241300Y425704D01*
X215900Y425704D02*
X215900Y412496D01*
D13*
X368300Y38100D03*
X393700Y38100D03*
X419100Y38100D03*
X444500Y38100D03*
D14*
X203600Y41847D02*
X203600Y59754D01*
X253600Y59754D02*
X253600Y41847D01*
X537147Y356000D02*
X555054Y356000D01*
X555054Y406000D02*
X537147Y406000D01*
X85154Y406000D02*
X67247Y406000D01*
X67247Y356000D02*
X85154Y356000D01*
D15*
X95250Y228600D03*
X355600Y203200D03*
M02*
