G04 EAGLE Gerber RS-274X export*
G75*
%MOMM*%
%FSLAX34Y34*%
%LPD*%
%INSoldermask Top*%
%IPPOS*%
%AMOC8*
5,1,8,0,0,1.08239X$1,22.5*%
G01*
%ADD10P,1.759533X8X112.500000*%
%ADD11R,3.103200X2.703200*%
%ADD12C,1.879600*%
%ADD13C,1.524000*%
%ADD14R,1.703200X2.203200*%
%ADD15R,4.003200X2.203200*%
%ADD16C,2.082800*%
%ADD17R,1.503200X1.803200*%
%ADD18R,1.503200X1.703200*%
%ADD19C,1.993900*%
%ADD20C,0.959600*%


D10*
X520700Y190500D03*
X520700Y266700D03*
D11*
X451600Y190500D03*
X386600Y190500D03*
X451600Y254000D03*
X386600Y254000D03*
D12*
X241300Y292100D03*
X241300Y190500D03*
X190500Y292100D03*
X190500Y190500D03*
D13*
X215900Y336296D02*
X215900Y349504D01*
X241300Y349504D02*
X241300Y336296D01*
X368300Y336296D02*
X368300Y349504D01*
X393700Y349504D02*
X393700Y336296D01*
X266700Y336296D02*
X266700Y349504D01*
X292100Y349504D02*
X292100Y336296D01*
X342900Y336296D02*
X342900Y349504D01*
X317500Y349504D02*
X317500Y336296D01*
X393700Y412496D02*
X393700Y425704D01*
X368300Y425704D02*
X368300Y412496D01*
X342900Y412496D02*
X342900Y425704D01*
X317500Y425704D02*
X317500Y412496D01*
X292100Y412496D02*
X292100Y425704D01*
X266700Y425704D02*
X266700Y412496D01*
X241300Y412496D02*
X241300Y425704D01*
X215900Y425704D02*
X215900Y412496D01*
D14*
X91300Y209800D03*
X114300Y209800D03*
X137300Y209800D03*
D15*
X114300Y272800D03*
D16*
X368300Y38100D03*
X393700Y38100D03*
X419100Y38100D03*
X444500Y38100D03*
D17*
X295300Y203200D03*
X314300Y203200D03*
D18*
X295300Y254000D03*
X314300Y254000D03*
D19*
X203600Y59754D02*
X203600Y41847D01*
X253600Y41847D02*
X253600Y59754D01*
X537147Y356000D02*
X555054Y356000D01*
X555054Y406000D02*
X537147Y406000D01*
X85154Y406000D02*
X67247Y406000D01*
X67247Y356000D02*
X85154Y356000D01*
D20*
X95250Y228600D03*
X355600Y203200D03*
M02*
