M48
;GenerationSoftware,Autodesk,EAGLE,9.6.2*%
;CreationDate,2020-11-05T14:45:38Z*%
FMAT,2
ICI,OFF
METRIC,TZ,000.000
T7C0.350
T6C0.813
T5C0.914
T4C1.016
T3C1.118
T2C1.194
%
G90
M71
T2
X7620Y35600
X20360Y5080
X25360Y5080
X54610Y35600
X54610Y40600
X7620Y40600
T3
X19050Y29210
X19050Y19050
X24130Y19050
X24130Y29210
T4
X44450Y3810
X41910Y3810
X39370Y3810
X36830Y3810
T5
X52070Y26670
X52070Y19050
T6
X36830Y41910
X21590Y41910
X24130Y41910
X26670Y41910
X29210Y41910
X31750Y41910
X34290Y41910
X39370Y41910
X31750Y34290
X34290Y34290
X29210Y34290
X26670Y34290
X39370Y34290
X36830Y34290
X24130Y34290
X21590Y34290
T7
X9525Y22860
X35560Y20320
M30